<?xml version="1.0" standalone="no"?><svg xmlns="http://www.w3.org/2000/svg" viewBox="0 0 1440 320"><path fill="#273036" fill-opacity="1" d="M0,128L26.7,133.3C53.3,139,107,149,160,149.3C213.3,149,267,139,320,133.3C373.3,128,427,128,480,144C533.3,160,587,192,640,213.3C693.3,235,747,245,800,234.7C853.3,224,907,192,960,192C1013.3,192,1067,224,1120,202.7C1173.3,181,1227,107,1280,85.3C1333.3,64,1387,96,1413,112L1440,128L1440,320L1413.3,320C1386.7,320,1333,320,1280,320C1226.7,320,1173,320,1120,320C1066.7,320,1013,320,960,320C906.7,320,853,320,800,320C746.7,320,693,320,640,320C586.7,320,533,320,480,320C426.7,320,373,320,320,320C266.7,320,213,320,160,320C106.7,320,53,320,27,320L0,320Z"></path></svg>